<svg xmlns="http://www.w3.org/2000/svg" version="1.1" xmlns:xlink="http://www.w3.org/1999/xlink" width="1500" height="81" viewBox="0 0 1500 81"><svg xml:space="preserve" width="1500" height="81" data-version="2" data-id="lg_ogumskYWlFd2akyW7m" viewBox="0 0 555 81" x="0" y="0"><rect width="100%" height="100%" fill="transparent"></rect><path fill="#113f67" d="M53.08 79.2 5.58.8h27.59l47.68 78.4Zm27.77-7.44L58.1 34.3V.8h22.75ZM5.58 79.2V8.24l22.74 37.28V79.2Z"></path><rect width="75.27" height="78.4" x="-37.63" y="-39.2" fill="none" rx="0" ry="0" transform="translate(43.72 40.5)"></rect><path fill="#113f67" d="M143.18 79.2V47.36H123.8V31.64H143V.8h26.35v78.4Zm-49.63 0V.8h26.11v78.4Z"></path><rect width="75.8" height="78.4" x="-37.9" y="-39.2" fill="none" rx="0" ry="0" transform="translate(131.95 40.5)"></rect><path fill="#113f67" d="m197.59 79.2-15.66-15.66V16.46L197.59.8h10.46v62.74h22.39V79.2Zm34.03-54.89v-7.85h-19.44V.8h31.85l13.71 15.66v7.85Zm2.96 54.89V51.26h-12.71V35.72h35.87V79.2Z"></path><rect width="75.81" height="78.4" x="-37.91" y="-39.2" fill="none" rx="0" ry="0" transform="translate(220.34 40.5)"></rect><path fill="#113f67" d="M301.69 79.2V.8h26.12v31.08h24.99V47h-24.99v32.2Zm46.5-55.71v-7.51h-16.25V.8h40.83v22.69ZM331.94 79.2V63.54h14.72v-7.85h26.11V79.2Z"></path><rect width="71.08" height="78.4" x="-35.54" y="-39.2" fill="none" rx="0" ry="0" transform="translate(337.73 40.5)"></rect><path fill="#113f67" d="M415.13 79.2V63.54h19.38V16.46h-19.38V.8h29.84l15.71 15.66v47.08L444.97 79.2Zm-30.25 0V.8H411v78.4Z"></path><rect width="75.8" height="78.4" x="-37.9" y="-39.2" fill="none" rx="0" ry="0" transform="translate(423.28 40.5)"></rect><path fill="#113f67" d="M512.62 79.2V63.54h9.69V.8h26.11v62.74L532.76 79.2Zm-24.23 0-15.71-15.66V.8h26.17v62.74h9.63V79.2Z"></path><rect width="75.74" height="78.4" x="-37.87" y="-39.2" fill="none" rx="0" ry="0" transform="translate(511.05 40.5)"></rect></svg></svg>